<!--?xml version="1.0" encoding="utf-8"?-->
<!-- Generator: Adobe Illustrator 19.1.1, SVG Export Plug-In . SVG Version: 6.00 Build 0)  -->
<svg version="1.1" id="_x31_0" xmlns="http://www.w3.org/2000/svg" xmlns:xlink="http://www.w3.org/1999/xlink" x="0px" y="0px" viewBox="0 0 512 512" style="width: 256px; height: 256px; opacity: 1;" xml:space="preserve">
<style type="text/css">
	.st0{fill:#fff;}
</style>
<g>
	<path class="st0" d="M511.867,284.242l0.133-0.094l-98.367-98.574V76.094h-54.844v32.027l-0.113,22.426L256.183,27.848
		l-0.105-0.102l0,0l-0.11-0.114L40.465,243.598L0.094,284.019l0.023,0.016L0,284.149l50.809,34.515l1.218-1.218l0.782-0.649v167.57
		h21.609h384.778v-98.398l0.11-69.262l1.961,1.957l42.649-29.012l7.976-5.386L511.867,284.242z M255.969,112.816L424.68,282.012
		v167.839H343.5h-66.34h-51.703V284.149h-78.074v165.702H87.324V282.012l168.481-169.031L255.969,112.816z" style="fill: rgb(255, 255, 255);"></path>
	<path class="st0" d="M286.004,374.766v0.16h80.832v-90.774h-80.832v90.059L286,374.766H286.004z M306.711,354.215v-49.356h39.418
		v49.356H306.711z" style="fill: rgb(255, 255,255);"></path>
</g>
</svg>
